HIERARCHY
ROOT Hips
{
    OFFSET 0.0 0.0 0.0
    CHANNELS 6 Xposition Yposition Zposition Zrotation Xrotation Yrotation
    JOINT LeftHipJoint
    {
        OFFSET 0.1 0.0 0.0
        CHANNELS 3 Zrotation Xrotation Yrotation
        JOINT LeftUpLeg
        {
            OFFSET 128.08638222955062 0.0 0.0
            CHANNELS 3 Zrotation Xrotation Yrotation
            JOINT LeftLeg
            {
                OFFSET 0.0 0.0 -438.78243444624457
                CHANNELS 3 Zrotation Xrotation Yrotation
                JOINT LeftFoot
                {
                    OFFSET 0.0 0.0 -395.5445383478951
                    CHANNELS 3 Zrotation Xrotation Yrotation
                    End Site
                    {
                        OFFSET 0.0 -0.1 0.0
                    }
                }
            }
        }
    }
    JOINT LowerBack
    {
        OFFSET 0.0 0.0 0.1
        CHANNELS 3 Zrotation Xrotation Yrotation
        JOINT Spine
        {
            OFFSET 0.0 0.0 220.9250198015801
            CHANNELS 3 Zrotation Xrotation Yrotation
            JOINT Spine1
            {
                OFFSET 0.0 0.0 251.41194265066318
                CHANNELS 3 Zrotation Xrotation Yrotation
                JOINT LeftShoulder
                {
                    OFFSET 0.1 0.0 0.0
                    CHANNELS 3 Zrotation Xrotation Yrotation
                    JOINT LeftArm
                    {
                        OFFSET 136.20377782613238 0.0 0.0
                        CHANNELS 3 Zrotation Xrotation Yrotation
                        JOINT LeftForeArm
                        {
                            OFFSET 272.7740940138933 0.0 0.0
                            CHANNELS 3 Zrotation Xrotation Yrotation
                            JOINT LeftHand
                            {
                                OFFSET 255.4655674093192 0.0 0.0
                                CHANNELS 3 Zrotation Xrotation Yrotation
                                End Site
                                {
                                    OFFSET 0.1 0.0 0.0
                                }
                            }
                        }
                    }
                }
                JOINT Neck
                {
                    OFFSET 0.0 0.0 0.1
                    CHANNELS 3 Zrotation Xrotation Yrotation
                    JOINT Neck1
                    {
                        OFFSET 0.0 0.0 99.09518172236393
                        CHANNELS 3 Zrotation Xrotation Yrotation
                        End Site
                        {
                            OFFSET 0.0 0.0 113.60469686996865
                        }
                    }
                }
                JOINT RightShoulder
                {
                    OFFSET -0.1 0.0 0.0
                    CHANNELS 3 Zrotation Xrotation Yrotation
                    JOINT RightArm
                    {
                        OFFSET -136.20377782613238 0.0 0.0
                        CHANNELS 3 Zrotation Xrotation Yrotation
                        JOINT RightForeArm
                        {
                            OFFSET -272.7740940138933 0.0 0.0
                            CHANNELS 3 Zrotation Xrotation Yrotation
                            JOINT RightHand
                            {
                                OFFSET -255.4655674093192 0.0 0.0
                                CHANNELS 3 Zrotation Xrotation Yrotation
                                End Site
                                {
                                    OFFSET -0.1 0.0 0.0
                                }
                            }
                        }
                    }
                }
            }
        }
    }
    JOINT RightHipJoint
    {
        OFFSET -0.1 0.0 0.0
        CHANNELS 3 Zrotation Xrotation Yrotation
        JOINT RightUpLeg
        {
            OFFSET -128.08638222955062 0.0 0.0
            CHANNELS 3 Zrotation Xrotation Yrotation
            JOINT RightLeg
            {
                OFFSET 0.0 0.0 -438.78243444624457
                CHANNELS 3 Zrotation Xrotation Yrotation
                JOINT RightFoot
                {
                    OFFSET 0.0 0.0 -395.5445383478951
                    CHANNELS 3 Zrotation Xrotation Yrotation
                    End Site
                    {
                        OFFSET 0.0 -0.1 0.0
                    }
                }
            }
        }
    }
}
MOTION
Frames: 11
Frame Time: 0.03333333333333333
0.0 0.0 827.066301716812 18.090906827888464 1.3807485315763504 2.270225108557918 -3.1805546814635164e-15 -1.9878466759146977e-16 -5.517382872562698e-33 -0.8017949452671417 -10.33916615705278 -2.3629552763827686 0.6872798895266786 18.119498042754557 3.107139101912214 0.0 0.0 0.0 -3.1805546814635164e-15 -1.9878466759146977e-16 -5.517382872562698e-33 0.6215644709794961 8.039887448127644 -3.12154279903492 -3.9647193583468847 -2.3591551857381883e-16 -8.165629582776612e-18 0.0 0.0 0.0 -15.609568587142899 -45.7702824853653 38.668496677282704 -138.28746629249022 -3.679594313709908e-15 8.209020059711735e-15 -3.1805546814635168e-15 0.0 0.0 0.0 0.0 0.0 9.634864705303633 -4.9602971222353895 -1.5822454185886048 0.0 0.0 0.0 17.953316170574553 12.627609900975026 -68.43272971150449 122.25810606434234 -2.7852418638060266e-15 -1.5356939284511828e-15 0.0 0.0 0.0 -3.1805546814635164e-15 -1.9878466759146977e-16 -5.517382872562698e-33 -0.7570242702399872 -9.748602413859718 -4.422260486796983 0.017978273084149166 26.531058121913986 1.791133282784321 0.0 0.0 0.0
0.0 0.0 827.066301716812 17.997037693457873 1.5030644388922794 2.27533001672982 0.0 0.0 0.0 -0.8144869714662413 -10.465726924556556 -2.4502682730722483 0.6729311830633092 18.350248018963942 3.321584283941432 0.0 0.0 -1.987846675914698e-16 0.0 0.0 0.0 0.6144322090875167 7.924078005645462 -3.1398394119163067 -3.9218748405463795 2.0127034160332133e-15 -3.2889098377842303e-16 0.0 -2.4848083448933725e-17 0.0 -15.551641852119369 -45.95732475197994 38.62862854412236 -138.25698696733713 -2.2662938733031003e-15 -5.943704602934671e-15 -3.1805546814635168e-15 0.0 0.0 0.0 -2.4848083448933725e-17 0.0 9.672828042199948 -5.02832069616051 -1.6253179094069263 0.0 -2.4848083448933725e-17 0.0 18.076404915647526 12.540458995868677 -68.43876980828597 122.29822015245891 -8.640996217889982e-15 2.5021209036829012e-15 0.0 0.0 0.0 0.0 0.0 0.0 -0.7751358817987604 -9.947536900004351 -4.382736747040995 0.04659665602705754 26.791300802982295 1.6096976951133075 0.0 0.0 -3.975693351829396e-16
0.0 0.0 827.066301716812 18.074082523240104 1.7155573039961118 2.289295149605887 0.0 0.0 1.2424041724466862e-16 -0.8406056612460501 -10.79356741043524 -2.5305331156127915 0.6523059573474148 18.471686531001588 3.437724339904487 0.0 0.0 -1.987846675914698e-16 0.0 0.0 1.2424041724466862e-16 0.6050117521207277 7.804892930365818 -3.145232730581315 -3.952091773546675 -1.6762482258035573e-15 -5.78342307569721e-17 0.0 0.0 0.0 -15.574612835641078 -46.3357042703733 38.484338694520915 -138.0563104592381 5.939726682450006e-15 -2.2766992038715647e-15 -3.1805546814635168e-15 0.0 0.0 0.0 0.0 0.0 9.545782594081276 -5.265311480550587 -1.5602082741618275 0.0 0.0 0.0 18.046991999551004 12.500023908760612 -68.52986499975191 122.41165659763078 2.7662359468041986e-16 -7.10655470644978e-15 6.3611093629270335e-15 6.3611093629270335e-15 -3.531125038440127e-31 0.0 0.0 1.2424041724466862e-16 -0.8036632526937245 -10.308048860332676 -4.431300557230146 0.024670524088366542 27.036191398639033 1.5904688254444417 0.0 0.0 0.0
0.0 0.0 827.066301716812 18.092766397696995 1.77202271802328 2.2921768135690073 0.0 0.0 4.969616689786745e-17 -0.8641901094843658 -11.078871114010411 -2.6040097988838338 0.6505515117374588 19.015742562872077 3.6297450252275683 0.0 0.0 1.987846675914698e-16 0.0 0.0 4.969616689786745e-17 0.6023750717916014 7.764147922808682 -3.1019756945086954 -3.971348231542133 -4.332213048787327e-16 -4.1282818051650656e-16 0.0 0.0 1.9878466759146977e-16 -15.538857850257083 -46.49343056237902 38.37723014359456 -137.86605149652735 5.9359384419610114e-15 -2.2865579241225116e-15 0.0 0.0 0.0 0.0 0.0 1.9878466759146977e-16 9.458950203312634 -5.566970916662226 -1.6165087658518258 0.0 0.0 1.9878466759146977e-16 17.821491835001936 12.554478989092402 -68.51127057771068 122.57011039721127 1.474745404004532e-14 -1.3680267636560718e-14 0.0 0.0 3.1805546814635168e-15 0.0 0.0 4.969616689786745e-17 -0.8248452658151371 -10.564061455290565 -4.514937367780183 -0.014258996997266283 27.486314232988704 1.7222718050322519 0.0 0.0 -3.975693351829396e-16
0.0 0.0 827.066301716812 18.16712648538111 1.871201812016866 2.2614986556891736 -3.1805546814635168e-15 0.0 0.0 -0.8895664079902147 -11.30580894423569 -2.562998081940134 0.691414772349893 19.350513900412714 3.7584286312703705 -8.276074308844047e-33 -1.5902773407317582e-15 -5.963540027744093e-16 -3.1805546814635168e-15 0.0 0.0 0.6021273399760395 7.698980392633847 -3.0703685330662887 -4.000926668570834 -1.410000181857825e-15 1.4965618432593613e-16 0.0 0.0 0.0 -15.394662641576293 -46.48683334410384 38.45325539033243 -137.75282415074983 -2.2924220780052385e-15 -5.933676208169106e-15 0.0 0.0 0.0 0.0 0.0 0.0 9.413521026545322 -5.7037847186885715 -1.6183253215416185 0.0 0.0 0.0 17.734315975290762 12.655783375709973 -68.51317203221703 122.67431103391537 -8.893071705531155e-15 9.637637315780905e-15 0.0 0.0 0.0 -3.1805546814635168e-15 0.0 0.0 -0.847270666676786 -10.759041082365751 -4.4606870897968465 0.03494006257639018 27.829677727416467 1.608734333696716 0.0 0.0 0.0
0.0 0.0 827.066301716812 18.276497484803723 2.0046315034940787 2.2631825256129723 0.0 0.0 -1.4908850069360235e-16 -0.9146539731698711 -11.648558223840633 -2.536812955982207 0.7157324800943152 19.803851293518054 3.8973025305671722 2.758691436281349e-33 -1.5902773407317584e-15 1.987846675914698e-16 0.0 0.0 -1.4908850069360235e-16 0.5922630130023436 7.5958031615889245 -3.044708520845219 -3.9845802361276514 -4.732331720923329e-16 3.8134789601246497e-16 0.0 0.0 0.0 -15.138128901605006 -46.51527641159431 38.59932431564314 -137.6666348147057 -5.93195029877023e-15 2.296884407199837e-15 -3.1805546814635168e-15 0.0 0.0 0.0 0.0 0.0 9.307236897456457 -6.000799902039161 -1.61497013574818 0.0 0.0 0.0 17.412749145139774 12.673229798563442 -68.45371270099642 122.74279548078313 5.83951137953407e-15 -4.059525496556163e-15 3.1805546814635168e-15 0.0 0.0 0.0 0.0 -1.4908850069360235e-16 -0.8687908517407604 -11.056430633765602 -4.4512982796925264 0.03587203733917899 28.088920006164756 1.5534547318292418 0.0 0.0 3.975693351829396e-16
0.0 0.0 827.066301716812 18.425605207824788 2.172321224232876 2.240072823035065 0.0 0.0 -9.93923337957349e-17 -0.9283611364022282 -11.886051755847358 -2.396842125809115 0.7638415004611291 19.947807038611135 3.867186068670134 0.0 0.0 1.987846675914698e-16 0.0 0.0 -9.93923337957349e-17 0.5824422398538863 7.5158328585215575 -2.99696674069099 -4.021301691420944 1.7755441300495433e-15 6.233383195979474e-17 0.0 0.0 0.0 -15.057574758143542 -46.551159739266616 38.642927940168 -137.53906571622383 -3.625902887449862e-15 8.232876344572332e-15 0.0 0.0 0.0 0.0 0.0 0.0 9.055558130830267 -6.281651540545289 -1.7564345441430327 0.0 0.0 0.0 17.29319560004381 12.675714427170309 -68.40749722451199 122.76726229899032 1.421475783481409e-14 5.09137833185876e-16 0.0 0.0 -3.1805546814635168e-15 0.0 0.0 -9.93923337957349e-17 -0.8835193616529231 -11.306611505386275 -4.346194751931858 0.080247365735878 28.267505536223563 1.4032296213115927 0.0 0.0 0.0
0.0 0.0 827.066301716812 18.541929181052808 2.2732780664028343 2.236848358853368 0.0 0.0 -4.969616689786745e-17 -0.9372475658011687 -11.956471931163602 -2.260342671935884 0.8107237070767283 19.752657947119033 3.663966834166485 0.0 0.0 3.975693351829396e-16 0.0 0.0 -4.969616689786745e-17 0.5807603949003795 7.469314826058411 -2.880763603502812 -4.048607036930428 -1.202752747859185e-15 -4.4032946034814453e-16 0.0 0.0 1.9878466759146977e-16 -15.112897400792006 -46.50802283349548 38.50970112680088 -137.33787353270367 1.2975489754987795e-15 -1.4164565940817668e-14 3.1805546814635176e-15 3.1805546814635176e-15 6.361109362927035e-15 0.0 0.0 1.9878466759146977e-16 8.776803573150678 -6.525571912467375 -1.9030821278667902 0.0 0.0 1.9878466759146977e-16 17.32142510581846 12.854802611836929 -68.35696391947765 122.9047671722788 0.0 0.0 0.0 0.0 -3.1805546814635168e-15 0.0 0.0 -4.969616689786745e-17 -0.8944274131866224 -11.405515249986706 -4.32342412310096 0.10192748806621206 28.366330666383373 1.4493585158082465 0.0 0.0 -3.975693351829396e-16
0.0 0.0 827.066301716812 18.668108638487038 2.2691972546833155 2.2653948436195055 0.0 0.0 4.969616689786745e-17 -0.9504364114741086 -11.917036542275259 -2.1746123294673656 0.867165646388969 19.704251206095297 3.5913299453931637 0.0 0.0 9.939233379573488e-16 0.0 0.0 4.969616689786745e-17 0.5943111486843862 7.512457394926967 -2.84312528549855 -4.035362036668438 1.3549621864751648e-15 -3.5008101014567093e-16 8.620910738379216e-35 2.4848083448933725e-17 -3.975693351829396e-16 -14.744434360027286 -46.463174793449426 38.74929252533839 -137.30964492341678 2.315353181498387e-15 5.924765984580596e-15 -3.1805546814635164e-15 -3.1805546814635164e-15 -8.827812596100317e-32 8.620910738379216e-35 2.4848083448933725e-17 -3.975693351829396e-16 8.53156194475417 -6.785951667320416 -2.023003701879969 8.620910738379216e-35 2.4848083448933725e-17 -3.975693351829396e-16 17.27699290705157 12.963412856367002 -68.36687375893761 123.12795975258148 -3.029014758693599e-15 5.593637628478836e-15 0.0 0.0 -3.1805546814635168e-15 0.0 0.0 4.969616689786745e-17 -0.9155052672999622 -11.474529239989524 -4.288715883575527 0.16460571033894347 28.535544425223538 1.3402749237634632 0.0 0.0 -7.951386703658792e-16
0.0 0.0 827.066301716812 18.700857554212185 2.4474411964784992 2.3981157408491613 -3.1805546814635164e-15 9.939233379573489e-17 2.758691436281349e-33 -0.9894080648260861 -12.151417653256946 -2.202419442106328 0.8972256032146008 19.81232143153182 3.538857394746388 0.0 0.0 3.975693351829396e-16 -3.1805546814635164e-15 9.939233379573489e-17 2.758691436281349e-33 0.6091895680601914 7.5472517840791165 -2.842970410844816 -3.994734838819737 -6.704906351329654e-16 -2.3383204230489042e-17 0.0 -1.5654292572828246e-15 0.0 -14.570009321239404 -46.66692609038835 38.73675988135021 -137.09175674985318 -2.326614534841132e-15 -5.920352787915932e-15 0.0 0.0 0.0 0.0 -1.5654292572828246e-15 0.0 8.289041757357655 -7.168296456003408 -2.1664201128461356 0.0 -1.5654292572828246e-15 0.0 17.332448738823015 12.959558059227927 -68.34140375340313 123.22652047806493 0.0 0.0 0.0 0.0 -3.1805546814635168e-15 -3.1805546814635164e-15 9.939233379573489e-17 2.758691436281349e-33 -0.9516788987759978 -11.685993674841141 -4.435005135948155 0.13778261301883493 28.614771101837952 1.3491315770337815 0.0 0.0 0.0
0.0 0.0 827.066301716812 18.68008142872128 2.267831003367654 2.516660166138768 0.0 0.0 1.987846675914698e-16 -0.9877545063583839 -12.032494197080556 -2.2453876787926386 0.9064068616679538 20.04044557309909 3.532644479543248 0.0 0.0 -3.975693351829396e-16 0.0 0.0 1.987846675914698e-16 0.6180487104899287 7.592296942964322 -2.8375055971054546 -3.9380422630270067 -1.0430033002523434e-15 -3.585786631922308e-17 0.0 0.0 0.0 -13.98634801328615 -46.504313927051996 39.00175148482799 -136.94245563925773 1.0585968769520189e-14 9.500306671172944e-15 0.0 0.0 0.0 0.0 0.0 0.0 8.145513406784149 -7.267627077238356 -2.3968170963005084 0.0 0.0 0.0 17.460505148269508 13.097366691676063 -68.3141196988818 123.17902800072997 -3.026521627997056e-15 5.5949869671326346e-15 0.0 0.0 0.0 0.0 0.0 1.987846675914698e-16 -0.9399620065574955 -11.452302608551289 -4.506686390234187 0.11818643079636004 28.645717474211978 1.2635615894460475 0.0 0.0 3.975693351829396e-16
